<?xml version="1.0" encoding="UTF-8"?>
<!DOCTYPE svg PUBLIC "-//W3C//DTD SVG 1.1//EN" "http://www.w3.org/Graphics/SVG/1.1/DTD/svg11.dtd">
<svg xmlns="http://www.w3.org/2000/svg" version="1.1" width="843px" height="596px" style="shape-rendering:geometricPrecision; text-rendering:geometricPrecision; image-rendering:optimizeQuality; fill-rule:evenodd; clip-rule:evenodd" xmlns:xlink="http://www.w3.org/1999/xlink">
<g><path style="opacity:0.907" fill="#fefffe" d="M 542.5,209.5 C 559.586,206.771 574.919,210.605 588.5,221C 591.236,223.148 593.236,225.814 594.5,229C 592.57,231.595 590.07,233.428 587,234.5C 575.977,222.157 562.144,217.323 545.5,220C 519.989,228.181 510.489,245.348 517,271.5C 526.672,290.586 542.172,298.42 563.5,295C 572.449,292.86 579.782,288.193 585.5,281C 590.159,281.012 592.992,283.178 594,287.5C 580.356,303.05 563.189,308.883 542.5,305C 517.445,298.928 504.445,282.928 503.5,257C 505.313,231.825 518.313,215.991 542.5,209.5 Z"/></g>
<g><path style="opacity:0.925" fill="#fefffe" d="M 170.5,211.5 C 171.978,211.238 173.311,211.571 174.5,212.5C 188.5,242.5 202.5,272.5 216.5,302.5C 212.62,303.795 208.786,303.795 205,302.5C 200.772,293.045 196.272,283.711 191.5,274.5C 178.5,273.167 165.5,273.167 152.5,274.5C 147.728,283.711 143.228,293.045 139,302.5C 135.214,303.795 131.38,303.795 127.5,302.5C 141.574,272.019 155.908,241.686 170.5,211.5 Z M 171.5,232.5 C 176.725,242.62 181.725,252.953 186.5,263.5C 176.833,264.833 167.167,264.833 157.5,263.5C 162.453,253.264 167.119,242.93 171.5,232.5 Z"/></g>
<g><path style="opacity:0.908" fill="#fefffe" d="M 223.5,211.5 C 227.437,211.207 231.27,211.54 235,212.5C 244.667,235.167 254.333,257.833 264,280.5C 274,257.833 284,235.167 294,212.5C 297.786,211.205 301.62,211.205 305.5,212.5C 292.206,242.749 279.206,273.083 266.5,303.5C 263.762,304.035 261.928,303.035 261,300.5C 248.396,270.85 235.896,241.183 223.5,211.5 Z"/></g>
<g><path style="opacity:0.925" fill="#fefffe" d="M 354.5,211.5 C 355.978,211.238 357.311,211.571 358.5,212.5C 372.5,242.5 386.5,272.5 400.5,302.5C 396.62,303.795 392.786,303.795 389,302.5C 384.772,293.045 380.272,283.711 375.5,274.5C 362.5,273.167 349.5,273.167 336.5,274.5C 331.728,283.711 327.228,293.045 323,302.5C 319.214,303.795 315.38,303.795 311.5,302.5C 325.574,272.019 339.908,241.686 354.5,211.5 Z M 355.5,232.5 C 360.725,242.62 365.725,252.953 370.5,263.5C 360.833,264.833 351.167,264.833 341.5,263.5C 346.453,253.264 351.119,242.93 355.5,232.5 Z"/></g>
<g><path style="opacity:0.925" fill="#fefffe" d="M 414.5,211.5 C 418.61,213.078 422.11,215.744 425,219.5C 442.333,239.5 459.667,259.5 477,279.5C 477.5,256.836 477.667,234.169 477.5,211.5C 480.833,211.5 484.167,211.5 487.5,211.5C 487.5,242.167 487.5,272.833 487.5,303.5C 484.675,303.919 482.509,302.919 481,300.5C 462.097,279.02 443.43,257.353 425,235.5C 424.5,258.164 424.333,280.831 424.5,303.5C 421.167,303.5 417.833,303.5 414.5,303.5C 414.5,272.833 414.5,242.167 414.5,211.5 Z"/></g>
<g><path style="opacity:0.971" fill="#fefffe" d="M 612.5,211.5 C 630.167,211.5 647.833,211.5 665.5,211.5C 665.5,214.5 665.5,217.5 665.5,220.5C 651.167,220.5 636.833,220.5 622.5,220.5C 622.5,230.167 622.5,239.833 622.5,249.5C 636.833,249.5 651.167,249.5 665.5,249.5C 665.5,252.5 665.5,255.5 665.5,258.5C 651.167,258.5 636.833,258.5 622.5,258.5C 622.5,270.5 622.5,282.5 622.5,294.5C 636.833,294.5 651.167,294.5 665.5,294.5C 665.5,297.5 665.5,300.5 665.5,303.5C 647.833,303.5 630.167,303.5 612.5,303.5C 612.5,272.833 612.5,242.167 612.5,211.5 Z"/></g>
<g><path style="opacity:0.683" fill="#fefffe" d="M 130.5,325.5 C 131.833,325.5 133.167,325.5 134.5,325.5C 134.5,334.5 134.5,343.5 134.5,352.5C 133.167,352.5 131.833,352.5 130.5,352.5C 130.5,343.5 130.5,334.5 130.5,325.5 Z"/></g>
<g><path style="opacity:0.767" fill="#fefffe" d="M 228.5,325.5 C 232.514,325.334 236.514,325.501 240.5,326C 243.21,327.015 245.543,328.515 247.5,330.5C 247.113,331.72 246.28,332.387 245,332.5C 239.723,327.4 233.889,326.566 227.5,330C 221.84,335.539 221.507,341.205 226.5,347C 234.836,352.663 241.169,350.996 245.5,342C 242.447,341.821 239.447,341.321 236.5,340.5C 240.783,339.508 245.116,339.174 249.5,339.5C 248.586,348.249 243.752,352.583 235,352.5C 223.1,352.266 218.1,346.266 220,334.5C 221.688,330.315 224.521,327.315 228.5,325.5 Z"/></g>
<g><path style="opacity:0.73" fill="#fefffe" d="M 334.5,325.5 C 339.179,325.334 343.845,325.501 348.5,326C 354.922,333.406 353.256,338.073 343.5,340C 346.257,344.179 349.257,348.179 352.5,352C 350.741,352.798 349.074,352.631 347.5,351.5C 344.858,347.691 342.025,344.024 339,340.5C 338.501,344.486 338.334,348.486 338.5,352.5C 337.167,352.5 335.833,352.5 334.5,352.5C 334.5,343.5 334.5,334.5 334.5,325.5 Z M 338.5,327.5 C 341.93,327.107 345.096,327.773 348,329.5C 348.758,331.769 348.591,333.936 347.5,336C 344.649,337.289 341.649,337.789 338.5,337.5C 338.5,334.167 338.5,330.833 338.5,327.5 Z"/></g>
<g><path style="opacity:0.929" fill="#fefffe" d="M 438.5,325.5 C 443.875,325.172 449.208,325.505 454.5,326.5C 450.217,327.492 445.884,327.826 441.5,327.5C 441.5,330.5 441.5,333.5 441.5,336.5C 458.833,337.167 458.833,337.833 441.5,338.5C 441.5,342.5 441.5,346.5 441.5,350.5C 445.884,350.174 450.217,350.508 454.5,351.5C 449.208,352.495 443.875,352.828 438.5,352.5C 438.5,343.5 438.5,334.5 438.5,325.5 Z"/></g>
<g><path style="opacity:0.818" fill="#fefffe" d="M 548.5,325.5 C 549.5,325.5 550.5,325.5 551.5,325.5C 551.666,333.507 551.5,341.507 551,349.5C 549.537,351.885 547.371,352.885 544.5,352.5C 541.57,352.846 539.237,351.846 537.5,349.5C 537.833,348.5 538.5,347.833 539.5,347.5C 541.413,348.373 543.247,349.373 545,350.5C 546.333,349.833 547.333,348.833 548,347.5C 548.5,340.174 548.666,332.841 548.5,325.5 Z"/></g>
<g><path style="opacity:0.758" fill="#fefffe" d="M 649.5,325.5 C 650.496,325.414 651.329,325.748 652,326.5C 655.767,335.2 659.933,343.7 664.5,352C 662.741,352.798 661.074,352.631 659.5,351.5C 658.305,349.249 657.305,346.915 656.5,344.5C 652.878,343.341 649.211,343.175 645.5,344C 644.039,346.421 642.706,348.921 641.5,351.5C 640.167,352.833 638.833,352.833 637.5,351.5C 641.512,342.812 645.512,334.145 649.5,325.5 Z M 649.5,333.5 C 651.858,335.168 653.524,337.501 654.5,340.5C 651.894,341.652 649.227,341.818 646.5,341C 647.991,338.692 648.991,336.192 649.5,333.5 Z"/></g>
</svg>
